<svg width="721" height="708" viewBox="0 0 721 708" fill="none" xmlns="http://www.w3.org/2000/svg">
<path d="M130.818 543.751C251.643 605.652 447.525 605.652 568.335 543.751C689.146 481.851 689.161 381.484 568.335 319.583C447.51 257.683 251.629 257.683 130.818 319.583C10.0075 381.484 9.99307 481.851 130.818 543.751Z" fill="#BABABA"/>
<path d="M130.818 530.021C251.643 591.921 447.525 591.921 568.335 530.021C689.146 468.12 689.161 367.753 568.335 305.853C447.51 243.953 251.629 243.953 130.818 305.853C10.0075 367.753 9.99307 468.12 130.818 530.021Z" fill="#FAFAFA"/>
<path d="M420.819 446.214C392.397 462.294 392.397 488.386 420.819 504.48C449.241 520.574 495.298 520.574 523.72 504.48C552.142 488.386 552.127 462.294 523.72 446.214C495.313 430.134 449.226 430.12 420.819 446.214Z" fill="#EBEBEB"/>
<path d="M121.575 215.555L197.713 192.333L139.139 232.13L121.575 215.555Z" fill="#A65DB3"/>
<path d="M197.713 192.334L115.706 205.599L98.1425 189.01L197.713 192.334Z" fill="#A65DB3"/>
<path d="M115.706 205.599V225.497L121.575 215.555L197.713 192.333L115.706 205.599Z" fill="#455A64"/>
<path d="M115.706 225.497L127.43 221.085L121.575 215.555L115.706 225.497Z" fill="#A65DB3"/>
<path d="M121.575 215.555L127.43 221.085L125.555 221.778L121.575 215.555Z" fill="#455A64"/>
<path d="M103.089 222.499C102.846 222.504 102.609 222.428 102.416 222.285C102.222 222.141 102.084 221.938 102.022 221.708C101.961 221.478 101.98 221.234 102.076 221.016C102.173 220.798 102.342 220.618 102.555 220.505C103.853 219.798 105.165 219.091 106.463 218.539C106.592 218.471 106.733 218.429 106.879 218.416C107.024 218.403 107.171 218.419 107.311 218.463C107.45 218.507 107.578 218.579 107.689 218.673C107.799 218.768 107.888 218.883 107.952 219.012C108.015 219.141 108.051 219.282 108.058 219.425C108.064 219.569 108.041 219.712 107.99 219.846C107.938 219.98 107.859 220.103 107.758 220.207C107.657 220.31 107.535 220.392 107.4 220.449C106.146 221.043 104.862 221.679 103.608 222.372C103.447 222.454 103.269 222.497 103.089 222.499Z" fill="#E0E0E0"/>
<path d="M89.7789 336.711C89.5579 336.714 89.3416 336.649 89.1589 336.527C86.8137 334.906 84.5919 333.119 82.5113 331.182C82.3794 331.098 82.2678 330.987 82.1842 330.856C82.1006 330.725 82.047 330.579 82.0272 330.426C82.0074 330.273 82.0218 330.117 82.0695 329.97C82.1171 329.823 82.1969 329.689 82.3031 329.575C82.4094 329.461 82.5397 329.372 82.6848 329.313C82.83 329.253 82.9866 329.226 83.1436 329.232C83.3007 329.238 83.4545 329.278 83.5943 329.349C83.7342 329.419 83.8566 329.519 83.9533 329.64C85.9602 331.509 88.105 333.229 90.3702 334.788C90.5568 334.919 90.6962 335.105 90.7681 335.318C90.8399 335.532 90.8406 335.763 90.7699 335.977C90.6993 336.191 90.561 336.378 90.3751 336.51C90.1891 336.642 89.9652 336.712 89.7357 336.711H89.7789ZM78.4737 326.416C78.314 326.418 78.156 326.384 78.0112 326.318C77.8665 326.252 77.7387 326.155 77.6373 326.034C75.8203 323.859 74.1672 321.557 72.6912 319.147C72.5421 318.905 72.497 318.615 72.566 318.34C72.6349 318.066 72.8123 317.829 73.0589 317.683C73.3056 317.537 73.6014 317.492 73.8813 317.56C74.1612 317.628 74.4023 317.802 74.5514 318.044C75.9732 320.368 77.5635 322.589 79.31 324.69C79.4901 324.907 79.576 325.184 79.549 325.462C79.522 325.74 79.3843 325.996 79.1658 326.175C78.9727 326.335 78.7265 326.421 78.4737 326.416ZM70.3552 313.546C70.1457 313.548 69.9402 313.491 69.7635 313.38C69.5869 313.27 69.4468 313.111 69.3602 312.924C68.1819 310.364 67.1704 307.733 66.332 305.047C66.2705 304.786 66.3122 304.511 66.4487 304.279C66.5852 304.046 66.8064 303.873 67.0677 303.794C67.3291 303.716 67.6112 303.737 67.8573 303.854C68.1034 303.971 68.2952 304.175 68.3941 304.425C69.1912 307.022 70.1545 309.568 71.2781 312.047C71.3385 312.174 71.3726 312.312 71.3785 312.452C71.3843 312.592 71.3618 312.732 71.3122 312.864C71.2626 312.995 71.1869 313.116 71.0894 313.218C70.992 313.321 70.8748 313.404 70.7445 313.461C70.6218 313.515 70.4894 313.544 70.3552 313.546ZM65.6687 299.107C65.4186 299.105 65.177 299.018 64.9851 298.86C64.7931 298.703 64.6627 298.485 64.616 298.245C64.0656 295.497 63.6756 292.72 63.448 289.929C63.4251 289.648 63.517 289.369 63.7036 289.154C63.8902 288.939 64.1562 288.806 64.443 288.783C64.7298 288.761 65.014 288.851 65.2331 289.034C65.4521 289.217 65.5881 289.478 65.611 289.759C65.8231 292.47 66.1987 295.167 66.7358 297.834C66.7651 297.971 66.7662 298.112 66.7391 298.249C66.7119 298.386 66.6571 298.517 66.5778 298.632C66.4986 298.748 66.3964 298.848 66.2774 298.924C66.1584 299.001 66.025 299.054 65.885 299.079L65.6687 299.107ZM64.2988 284.003C64.1562 284.003 64.015 283.975 63.8837 283.921C63.7523 283.867 63.6333 283.787 63.5339 283.687C63.4344 283.587 63.3564 283.468 63.3045 283.338C63.2526 283.207 63.2279 283.068 63.2317 282.929C63.2654 280.129 63.458 277.334 63.8085 274.556C63.8102 274.407 63.8439 274.26 63.9074 274.125C63.9709 273.989 64.0629 273.868 64.1773 273.77C64.2916 273.672 64.4259 273.598 64.5712 273.554C64.7165 273.51 64.8696 273.497 65.0205 273.515C65.1715 273.533 65.3168 273.582 65.4472 273.659C65.5775 273.736 65.6898 273.839 65.7768 273.961C65.8639 274.083 65.9236 274.222 65.9522 274.369C65.9808 274.515 65.9775 274.666 65.9427 274.811C65.6093 277.514 65.4263 280.234 65.3947 282.957C65.3928 283.096 65.363 283.234 65.3069 283.362C65.2508 283.49 65.1696 283.606 65.0678 283.703C64.966 283.8 64.8457 283.876 64.7138 283.928C64.5818 283.98 64.4408 284.005 64.2988 284.003ZM66.058 268.942C65.9769 268.956 65.894 268.956 65.8129 268.942C65.5342 268.881 65.2914 268.714 65.1375 268.479C64.9835 268.243 64.9308 267.957 64.991 267.683C65.6228 264.944 66.432 262.247 67.4135 259.608C67.4613 259.47 67.5374 259.344 67.6372 259.236C67.737 259.129 67.8583 259.042 67.9935 258.983C68.1288 258.923 68.2751 258.891 68.4234 258.889C68.5717 258.887 68.7187 258.915 68.8555 258.972C68.9947 259.02 69.1223 259.096 69.2309 259.194C69.3395 259.292 69.4267 259.411 69.4873 259.543C69.5479 259.675 69.5807 259.818 69.5836 259.963C69.5866 260.108 69.5596 260.252 69.5044 260.386C68.5582 262.937 67.778 265.544 67.1684 268.192C67.0972 268.422 66.9485 268.621 66.7468 268.758C66.5451 268.894 66.3023 268.959 66.058 268.942ZM71.1916 254.658C71.0253 254.665 70.8605 254.626 70.7157 254.545C70.5867 254.486 70.471 254.402 70.3754 254.299C70.2799 254.195 70.2064 254.074 70.1594 253.942C70.1124 253.811 70.0927 253.671 70.1016 253.532C70.1104 253.392 70.1476 253.256 70.211 253.131C71.4696 250.611 72.8855 248.169 74.4505 245.819C74.6081 245.6 74.8444 245.448 75.1119 245.393C75.3795 245.338 75.6583 245.384 75.8925 245.522C76.121 245.673 76.2816 245.904 76.3408 246.167C76.3999 246.431 76.3529 246.706 76.2097 246.937C74.6885 249.206 73.3159 251.568 72.1 254.008C72.0254 254.188 71.9008 254.345 71.7403 254.46C71.5798 254.575 71.3897 254.644 71.1916 254.658ZM79.4831 241.93C79.2419 241.933 79.0073 241.853 78.8197 241.704C78.7073 241.617 78.6136 241.509 78.5439 241.387C78.4743 241.264 78.4302 241.129 78.4141 240.99C78.398 240.851 78.4102 240.709 78.4502 240.575C78.4901 240.44 78.5569 240.314 78.6467 240.205C80.4487 238.022 82.3744 235.94 84.4147 233.968C84.6175 233.77 84.8924 233.658 85.179 233.658C85.4656 233.658 85.7404 233.77 85.9432 233.968C86.1457 234.167 86.2595 234.437 86.2595 234.718C86.2595 234.999 86.1457 235.268 85.9432 235.467C83.978 237.39 82.12 239.415 80.3771 241.534C80.2654 241.655 80.1264 241.749 79.9711 241.808C79.8159 241.867 79.6487 241.889 79.4831 241.874V241.93ZM90.3269 231.069C90.1697 231.069 90.0145 231.034 89.8724 230.968C89.7303 230.902 89.6048 230.806 89.505 230.687C89.3223 230.47 89.2336 230.192 89.2578 229.912C89.2821 229.632 89.4174 229.372 89.6347 229.188C91.83 227.398 94.116 225.718 96.4842 224.154C96.7167 224.014 96.9944 223.965 97.2618 224.018C97.5292 224.07 97.7665 224.22 97.9262 224.436C98.0872 224.671 98.1472 224.959 98.0932 225.237C98.0392 225.515 97.8756 225.761 97.6378 225.921C95.3274 227.443 93.0989 229.081 90.9614 230.829C90.7803 230.971 90.5586 231.055 90.3269 231.069Z" fill="#E0E0E0"/>
<path d="M99.6999 342.241C99.5451 342.242 99.3922 342.208 99.2529 342.142C97.9118 341.548 96.5852 340.912 95.3162 340.233C95.1921 340.169 95.0821 340.081 94.9925 339.976C94.9029 339.87 94.8354 339.748 94.7939 339.616C94.7524 339.485 94.7377 339.347 94.7506 339.21C94.7635 339.073 94.8038 338.94 94.8692 338.819C95.0038 338.575 95.2299 338.394 95.4993 338.312C95.7687 338.23 96.06 338.254 96.3112 338.38C97.5513 339.031 98.8347 339.653 100.132 340.233C100.355 340.334 100.536 340.507 100.645 340.723C100.754 340.938 100.785 341.184 100.733 341.419C100.681 341.654 100.549 341.865 100.359 342.017C100.168 342.169 99.9309 342.253 99.6855 342.255L99.6999 342.241Z" fill="#E0E0E0"/>
<path d="M592.936 290.919L653.933 252.622L680.797 261.079L592.936 290.919Z" fill="#A65DB3"/>
<path d="M592.936 290.919L645.655 247.813L633.932 234.548L592.936 290.919Z" fill="#A65DB3"/>
<path d="M645.655 247.813V257.812L592.936 290.919L645.655 247.813Z" fill="#455A64"/>
<path d="M657.552 243.642C657.29 243.642 657.038 243.546 656.845 243.373C656.632 243.185 656.502 242.924 656.484 242.643C656.465 242.363 656.558 242.087 656.745 241.874C658.622 239.819 660.289 237.588 661.719 235.213C661.865 234.969 662.103 234.792 662.381 234.72C662.66 234.649 662.956 234.688 663.205 234.831C663.453 234.973 663.634 235.207 663.707 235.48C663.78 235.753 663.739 236.044 663.594 236.288C662.084 238.778 660.336 241.122 658.374 243.288C658.271 243.401 658.144 243.491 658.002 243.552C657.86 243.613 657.707 243.644 657.552 243.642ZM665.8 230.461C665.671 230.481 665.54 230.481 665.411 230.461C665.274 230.41 665.15 230.332 665.045 230.232C664.94 230.133 664.856 230.013 664.8 229.881C664.743 229.749 664.714 229.607 664.715 229.463C664.716 229.32 664.747 229.178 664.805 229.047C665.824 226.471 666.587 223.804 667.084 221.085C667.135 220.807 667.297 220.561 667.534 220.401C667.77 220.24 668.062 220.178 668.345 220.229C668.628 220.28 668.879 220.439 669.043 220.671C669.207 220.903 669.269 221.189 669.218 221.467C668.687 224.316 667.88 227.11 666.81 229.81C666.728 230.006 666.588 230.173 666.408 230.289C666.228 230.405 666.016 230.465 665.8 230.461ZM668.886 215.286C668.745 215.285 668.605 215.255 668.475 215.2C668.346 215.145 668.229 215.065 668.131 214.965C668.033 214.865 667.956 214.747 667.905 214.618C667.854 214.488 667.83 214.35 667.833 214.212C667.833 213.844 667.833 213.476 667.833 213.109C667.827 210.708 667.634 208.311 667.257 205.938C667.215 205.659 667.287 205.375 667.457 205.148C667.627 204.92 667.881 204.767 668.165 204.722C668.449 204.685 668.737 204.757 668.968 204.923C669.199 205.089 669.356 205.336 669.405 205.613C669.795 208.093 669.993 210.599 669.996 213.109C669.996 213.49 669.996 213.872 669.996 214.254C669.985 214.534 669.863 214.799 669.655 214.992C669.448 215.185 669.172 215.29 668.886 215.286ZM666.709 199.956C666.477 199.956 666.251 199.881 666.066 199.743C665.882 199.605 665.748 199.412 665.685 199.193C664.858 196.539 663.821 193.953 662.585 191.457C662.521 191.332 662.484 191.196 662.475 191.056C662.466 190.917 662.486 190.777 662.533 190.645C662.58 190.514 662.654 190.392 662.749 190.289C662.845 190.185 662.96 190.102 663.089 190.043C663.348 189.921 663.644 189.905 663.915 189.998C664.185 190.09 664.407 190.285 664.531 190.538C665.821 193.131 666.896 195.822 667.747 198.585C667.789 198.717 667.804 198.857 667.79 198.995C667.776 199.134 667.735 199.268 667.668 199.39C667.601 199.513 667.509 199.621 667.399 199.708C667.289 199.796 667.162 199.861 667.026 199.9C666.925 199.939 666.817 199.958 666.709 199.956ZM660.018 185.913C659.836 185.915 659.656 185.87 659.497 185.783C659.338 185.696 659.204 185.571 659.109 185.418C657.563 183.091 655.863 180.866 654.019 178.757C653.926 178.651 653.855 178.529 653.811 178.396C653.766 178.263 653.749 178.123 653.759 177.984C653.77 177.845 653.809 177.709 653.873 177.584C653.937 177.46 654.026 177.349 654.134 177.258C654.241 177.167 654.365 177.098 654.499 177.054C654.633 177.011 654.775 176.994 654.916 177.004C655.056 177.015 655.194 177.053 655.32 177.116C655.445 177.179 655.557 177.266 655.649 177.371C657.563 179.554 659.326 181.859 660.926 184.273C661.059 184.506 661.101 184.778 661.042 185.039C660.984 185.3 660.829 185.53 660.609 185.687C660.437 185.811 660.231 185.885 660.018 185.899V185.913ZM649.924 174.02C649.649 174.019 649.385 173.912 649.188 173.723C647.112 171.817 644.931 170.023 642.656 168.349C642.543 168.265 642.447 168.16 642.374 168.04C642.302 167.921 642.255 167.788 642.234 167.65C642.214 167.512 642.222 167.372 642.257 167.237C642.293 167.102 642.355 166.975 642.44 166.864C642.525 166.752 642.632 166.658 642.754 166.587C642.876 166.516 643.012 166.47 643.152 166.45C643.293 166.43 643.436 166.438 643.573 166.473C643.711 166.507 643.84 166.568 643.954 166.651C646.298 168.37 648.541 170.216 650.674 172.181C650.834 172.327 650.946 172.517 650.994 172.726C651.042 172.935 651.024 173.154 650.943 173.353C650.861 173.552 650.721 173.722 650.539 173.841C650.357 173.96 650.142 174.022 649.924 174.02ZM637.278 164.601C637.073 164.599 636.873 164.54 636.701 164.431C635.72 163.837 634.696 163.243 633.658 162.663C632.216 161.871 630.774 161.079 629.246 160.33C629.106 160.275 628.98 160.192 628.875 160.087C628.77 159.981 628.688 159.856 628.635 159.718C628.583 159.579 628.56 159.432 628.568 159.285C628.577 159.138 628.617 158.994 628.685 158.863C628.754 158.731 628.849 158.615 628.966 158.522C629.082 158.429 629.218 158.361 629.363 158.322C629.508 158.283 629.659 158.275 629.808 158.296C629.957 158.318 630.099 158.37 630.226 158.449C631.74 159.213 633.254 160.005 634.725 160.825C635.792 161.405 636.83 162.013 637.84 162.635C638.073 162.781 638.24 163.009 638.307 163.272C638.374 163.535 638.336 163.813 638.2 164.049C638.107 164.211 637.973 164.346 637.812 164.443C637.65 164.539 637.466 164.594 637.278 164.601ZM508.002 163.88C507.812 163.878 507.625 163.827 507.461 163.733C507.297 163.638 507.16 163.504 507.065 163.342C506.928 163.103 506.892 162.822 506.965 162.557C507.038 162.293 507.214 162.067 507.454 161.928C509.963 160.514 512.544 159.1 515.155 157.912C515.411 157.789 515.706 157.771 515.976 157.861C516.247 157.951 516.469 158.142 516.597 158.392C516.717 158.646 516.731 158.936 516.637 159.2C516.543 159.464 516.347 159.682 516.092 159.807C513.525 161.037 510.987 162.352 508.521 163.752C508.36 163.829 508.181 163.863 508.002 163.851V163.88ZM623.218 157.417C623.068 157.418 622.92 157.384 622.785 157.318C620.19 156.2 617.508 155.154 614.826 154.22C614.554 154.125 614.332 153.927 614.209 153.671C614.086 153.415 614.072 153.122 614.169 152.856C614.267 152.589 614.468 152.372 614.729 152.251C614.99 152.131 615.289 152.117 615.561 152.212C618.286 153.174 621.012 154.235 623.665 155.38C623.896 155.477 624.086 155.649 624.202 155.868C624.318 156.087 624.352 156.338 624.299 156.579C624.246 156.82 624.109 157.036 623.912 157.189C623.715 157.341 623.469 157.422 623.218 157.417ZM522.206 156.978C521.993 156.98 521.784 156.918 521.607 156.802C521.429 156.687 521.292 156.521 521.211 156.328C521.152 156.198 521.12 156.058 521.117 155.916C521.114 155.774 521.14 155.633 521.194 155.501C521.248 155.369 521.328 155.249 521.43 155.148C521.532 155.047 521.654 154.967 521.788 154.913C524.455 153.81 527.195 152.792 529.935 151.873C530.073 151.817 530.221 151.79 530.37 151.792C530.519 151.795 530.666 151.828 530.801 151.889C530.936 151.95 531.057 152.038 531.157 152.147C531.256 152.256 531.331 152.384 531.377 152.523C531.429 152.66 531.453 152.805 531.448 152.951C531.442 153.096 531.406 153.239 531.343 153.371C531.28 153.503 531.19 153.621 531.08 153.718C530.969 153.816 530.84 153.89 530.699 153.938C528.003 154.843 525.292 155.847 522.682 156.922C522.527 156.964 522.365 156.974 522.206 156.95V156.978ZM608.337 152.085C608.236 152.099 608.134 152.099 608.034 152.085C605.308 151.307 602.511 150.671 599.728 150.006C599.589 149.976 599.457 149.92 599.34 149.84C599.223 149.761 599.123 149.659 599.046 149.542C598.969 149.424 598.916 149.293 598.891 149.155C598.866 149.018 598.868 148.877 598.899 148.74C598.929 148.604 598.986 148.475 599.068 148.36C599.149 148.245 599.252 148.147 599.372 148.072C599.492 147.996 599.626 147.945 599.766 147.92C599.906 147.895 600.05 147.897 600.189 147.927C603.073 148.535 605.871 149.257 608.639 150.049C608.889 150.12 609.105 150.278 609.246 150.492C609.387 150.707 609.444 150.964 609.407 151.217C609.37 151.47 609.242 151.701 609.045 151.868C608.848 152.035 608.597 152.127 608.337 152.127V152.085ZM537.174 151.873C536.938 151.872 536.709 151.796 536.521 151.655C536.334 151.515 536.198 151.318 536.136 151.095C536.096 150.962 536.084 150.823 536.099 150.686C536.115 150.548 536.158 150.415 536.227 150.294C536.295 150.173 536.387 150.067 536.498 149.981C536.608 149.895 536.735 149.831 536.871 149.794C539.654 149.03 542.509 148.38 545.35 147.758C545.494 147.712 545.646 147.697 545.796 147.714C545.946 147.73 546.091 147.776 546.222 147.851C546.353 147.925 546.466 148.026 546.555 148.146C546.643 148.266 546.705 148.403 546.737 148.548C546.768 148.693 546.768 148.842 546.737 148.987C546.706 149.132 546.644 149.269 546.555 149.389C546.467 149.51 546.353 149.61 546.223 149.685C546.092 149.759 545.947 149.806 545.797 149.822C543 150.402 540.202 151.081 537.462 151.83L537.174 151.873ZM592.878 148.677H592.662C589.85 148.238 586.981 147.885 584.154 147.63C584.005 147.629 583.858 147.597 583.722 147.537C583.587 147.477 583.465 147.39 583.365 147.282C583.265 147.174 583.189 147.046 583.141 146.908C583.094 146.77 583.076 146.623 583.089 146.477C583.102 146.332 583.145 146.191 583.216 146.062C583.288 145.934 583.385 145.822 583.503 145.732C583.62 145.642 583.756 145.578 583.9 145.542C584.044 145.506 584.195 145.499 584.342 145.523C587.226 145.778 590.11 146.131 592.994 146.584C593.275 146.632 593.526 146.787 593.693 147.014C593.86 147.241 593.93 147.523 593.888 147.8C593.837 148.029 593.71 148.235 593.528 148.386C593.345 148.537 593.117 148.624 592.878 148.634V148.677ZM552.661 148.578C552.404 148.578 552.156 148.488 551.96 148.325C551.765 148.161 551.635 147.935 551.594 147.687C551.552 147.408 551.624 147.124 551.794 146.896C551.964 146.669 552.218 146.516 552.502 146.471C555.386 146.046 558.27 145.693 561.154 145.452C561.296 145.44 561.439 145.456 561.575 145.498C561.711 145.54 561.837 145.608 561.947 145.698C562.056 145.788 562.146 145.898 562.211 146.022C562.277 146.146 562.317 146.282 562.33 146.421C562.342 146.56 562.326 146.701 562.283 146.834C562.24 146.967 562.171 147.091 562.079 147.198C561.987 147.305 561.875 147.393 561.749 147.458C561.622 147.522 561.484 147.562 561.342 147.574C558.458 147.814 555.646 148.139 552.834 148.578H552.661ZM577.103 147.164C574.219 147.065 571.335 147.05 568.523 147.164C568.381 147.171 568.239 147.151 568.106 147.103C567.972 147.055 567.85 146.982 567.746 146.887C567.643 146.792 567.559 146.677 567.502 146.549C567.445 146.422 567.414 146.285 567.413 146.145C567.407 146.006 567.43 145.866 567.48 145.735C567.53 145.604 567.606 145.484 567.704 145.383C567.803 145.281 567.92 145.2 568.051 145.144C568.182 145.088 568.323 145.058 568.465 145.056C571.349 144.957 574.233 144.971 577.117 145.056C577.259 145.06 577.399 145.091 577.529 145.148C577.659 145.205 577.776 145.286 577.874 145.387C577.971 145.488 578.048 145.607 578.099 145.737C578.15 145.867 578.174 146.006 578.17 146.145C578.149 146.411 578.028 146.659 577.831 146.842C577.633 147.024 577.374 147.129 577.103 147.135V147.164Z" fill="#E0E0E0"/>
<path d="M571.666 311.595V309.332H571.104C570.248 307.799 568.948 306.55 567.369 305.74C564.148 304.136 560.586 303.3 556.973 303.3C553.359 303.3 549.797 304.136 546.576 305.74C544.997 306.55 543.697 307.799 542.841 309.332H542.279V311.524C542.279 313.688 543.721 315.866 546.605 317.52C549.829 319.116 553.39 319.948 557.001 319.948C560.613 319.948 564.174 319.116 567.398 317.52C570.253 315.922 571.681 313.744 571.666 311.595Z" fill="#37474F"/>
<path d="M556.973 317.661C565.088 317.661 571.666 313.932 571.666 309.332C571.666 304.731 565.088 301.002 556.973 301.002C548.857 301.002 542.279 304.731 542.279 309.332C542.279 313.932 548.857 317.661 556.973 317.661Z" fill="#455A64"/>
<path d="M553.194 239.979V308.356C553.225 308.68 553.343 308.991 553.535 309.257C553.728 309.523 553.988 309.734 554.29 309.869C555.12 310.281 556.036 310.495 556.965 310.495C557.895 310.495 558.811 310.281 559.64 309.869C559.946 309.737 560.21 309.527 560.405 309.261C560.601 308.995 560.72 308.682 560.751 308.356V239.979H553.194Z" fill="#37474F"/>
<path d="M573.916 188.798C570.239 186.719 566.893 186.549 564.384 187.921L517.678 214.395L541.111 260.485L587.976 233.897V213.731C587.976 204.354 581.674 193.196 573.916 188.798Z" fill="#455A64"/>
<path d="M541.111 240.304V260.485L513.006 244.561V224.394C513.006 215.018 519.293 210.987 527.051 215.385C532.026 218.214 536.395 223.786 538.89 229.895C540.285 233.199 541.039 236.729 541.111 240.304Z" fill="#37474F"/>
<path d="M541.111 240.304V260.485L513.006 244.56L538.89 229.895C540.285 233.198 541.039 236.729 541.111 240.304Z" fill="#263238"/>
<path d="M536.424 247.219C533.843 239.894 525.45 230.39 517.678 226.006C509.906 221.622 505.724 223.984 508.305 231.309L512.991 244.575L541.11 260.499C541.11 260.499 539.02 254.545 536.424 247.219Z" fill="#455A64"/>
<path d="M555.761 241.067L554.189 240.176C553.852 240.024 553.479 239.962 553.11 239.997C552.74 240.032 552.386 240.162 552.084 240.374C551.215 240.932 550.493 241.682 549.974 242.564C549.456 243.446 549.156 244.435 549.099 245.451C549.06 245.815 549.121 246.183 549.275 246.517C549.43 246.85 549.673 247.136 549.979 247.346L551.421 248.167L551.695 247.728C551.994 247.665 552.281 247.555 552.546 247.403C553.414 246.849 554.137 246.101 554.655 245.222C555.174 244.342 555.474 243.355 555.531 242.34C555.529 242.087 555.495 241.835 555.43 241.591L555.761 241.067Z" fill="#263238"/>
<path d="M553.584 241.237C552.715 241.792 551.993 242.539 551.474 243.419C550.955 244.298 550.656 245.285 550.599 246.3C550.599 248.167 551.94 248.916 553.584 247.983C554.453 247.429 555.176 246.682 555.695 245.802C556.214 244.923 556.513 243.935 556.569 242.92C556.612 241.053 555.17 240.304 553.584 241.237Z" fill="#37474F"/>
<path d="M553.584 245.409C553.47 245.409 553.358 245.387 553.253 245.344C553.148 245.302 553.052 245.239 552.972 245.16C552.892 245.082 552.828 244.988 552.784 244.885C552.741 244.782 552.719 244.672 552.719 244.56V215.385C552.719 215.16 552.81 214.944 552.972 214.785C553.134 214.626 553.354 214.537 553.584 214.537C553.813 214.537 554.033 214.626 554.196 214.785C554.358 214.944 554.449 215.16 554.449 215.385V244.56C554.449 244.786 554.358 245.001 554.196 245.16C554.033 245.32 553.813 245.409 553.584 245.409Z" fill="#263238"/>
<path d="M554.362 216.149V223.757L562.683 215.385L554.362 216.149Z" fill="#37474F"/>
<path d="M116.917 468.53C116.196 468.912 102.959 472.589 98.056 466.239C93.1532 459.889 101.301 449.99 96.7005 446.341C92.1005 442.692 79.2091 446.341 76.1088 438.676C73.0085 431.011 82.194 427.702 77.0316 419.966C73.7727 415.087 64.6593 412.4 65.0775 407.86C65.6831 401.227 78.142 399.375 89.0147 406.545C99.8873 413.715 104.963 407.832 108.41 407.351C111.856 406.87 119.297 407.931 119.066 419.81C118.835 431.69 116.917 468.53 116.917 468.53Z" fill="#A65DB3"/>
<path d="M117.797 451.687C117.625 451.686 117.459 451.627 117.327 451.518C117.195 451.41 117.106 451.259 117.076 451.093C113.284 428.466 86.5633 410.18 72.6624 406.248C72.5704 406.224 72.4844 406.182 72.4095 406.124C72.3347 406.066 72.2725 405.994 72.2267 405.912C72.1809 405.83 72.1524 405.74 72.143 405.647C72.1337 405.554 72.1436 405.461 72.1721 405.371C72.2256 405.191 72.3499 405.04 72.5176 404.949C72.6853 404.859 72.8826 404.838 73.0661 404.891C87.2698 408.921 114.61 427.716 118.504 450.867C118.533 451.05 118.487 451.238 118.376 451.389C118.266 451.54 118.099 451.642 117.912 451.673L117.797 451.687Z" fill="white"/>
<path d="M86.2749 432.751C86.1163 432.752 85.9616 432.702 85.8348 432.609C85.708 432.516 85.6161 432.384 85.5734 432.234C85.5307 432.084 85.5396 431.925 85.5986 431.78C85.6576 431.636 85.7636 431.515 85.8999 431.435C86.3325 431.181 96.6284 425.284 106.751 428.041C106.942 428.09 107.106 428.211 107.206 428.378C107.306 428.545 107.335 428.745 107.285 428.932C107.235 429.12 107.111 429.28 106.941 429.378C106.771 429.476 106.568 429.504 106.376 429.455C96.8303 426.853 86.7363 432.637 86.6354 432.694C86.5232 432.746 86.3981 432.766 86.2749 432.751Z" fill="white"/>
<path d="M493.885 349.043C499.566 349.806 509.242 346.582 509.934 337.305C510.627 328.028 514.534 325.51 521.701 323.997C528.868 322.484 530.973 320.037 531.795 315.625C532.617 311.212 527.166 305.937 528.695 299.291C530.223 292.644 535.328 292.658 540.346 285.148C543.562 280.312 536.972 272.93 525.998 276.097C515.025 279.265 515.904 286.209 504.931 287.1C493.957 287.991 487.079 294.525 486.862 302.656C486.646 310.788 493.885 349.043 493.885 349.043Z" fill="#A65DB3"/>
<path opacity="0.2" d="M493.885 349.043C499.566 349.806 509.242 346.582 509.934 337.305C510.627 328.028 514.534 325.51 521.701 323.997C528.868 322.484 530.973 320.037 531.795 315.625C532.617 311.212 527.166 305.937 528.695 299.291C530.223 292.644 535.328 292.658 540.346 285.148C543.562 280.312 536.972 272.93 525.998 276.097C515.025 279.265 515.904 286.209 504.931 287.1C493.957 287.991 487.079 294.525 486.862 302.656C486.646 310.788 493.885 349.043 493.885 349.043Z" fill="black"/>
<path d="M491.809 331.252H491.722C491.629 331.233 491.541 331.197 491.463 331.145C491.384 331.093 491.317 331.027 491.265 330.949C491.212 330.872 491.176 330.785 491.158 330.694C491.14 330.602 491.141 330.509 491.16 330.418C496.466 304.693 525.407 281.146 532.459 278.742C532.65 278.68 532.858 278.695 533.038 278.784C533.218 278.873 533.354 279.028 533.417 279.216C533.481 279.403 533.465 279.608 533.375 279.784C533.284 279.961 533.126 280.094 532.934 280.156C526.042 282.504 497.764 305.612 492.558 330.771C492.505 330.921 492.402 331.05 492.267 331.136C492.131 331.223 491.97 331.264 491.809 331.252Z" fill="white"/>
<path d="M110.861 322.13C110.931 320.855 111.308 319.614 111.959 318.508C112.611 317.403 113.519 316.463 114.61 315.766L306.266 207.239C307.428 206.667 308.709 206.369 310.008 206.369C311.308 206.369 312.589 206.667 313.75 207.239L317.975 209.643C319.069 210.338 319.979 211.277 320.631 212.383C321.283 213.489 321.658 214.731 321.725 216.007V360.088C321.651 361.362 321.273 362.602 320.622 363.707C319.971 364.813 319.064 365.753 317.975 366.452L126.319 474.965C125.158 475.544 123.873 475.845 122.57 475.845C121.267 475.845 119.982 475.544 118.821 474.965L114.61 472.575C113.52 471.876 112.613 470.937 111.962 469.831C111.311 468.726 110.934 467.486 110.861 466.211V322.13Z" fill="#A65DB3"/>
<path opacity="0.3" d="M110.861 322.13C110.931 320.855 111.308 319.614 111.959 318.508C112.611 317.403 113.519 316.463 114.61 315.766L306.266 207.239C307.428 206.667 308.709 206.369 310.008 206.369C311.308 206.369 312.589 206.667 313.75 207.239L317.975 209.643C319.069 210.338 319.979 211.277 320.631 212.383C321.283 213.489 321.658 214.731 321.725 216.007V360.088C321.651 361.362 321.273 362.602 320.622 363.707C319.971 364.813 319.064 365.753 317.975 366.452L126.319 474.965C125.158 475.544 123.873 475.845 122.57 475.845C121.267 475.845 119.982 475.544 118.821 474.965L114.61 472.575C113.52 471.876 112.613 470.937 111.962 469.831C111.311 468.726 110.934 467.486 110.861 466.211V322.13Z" fill="black"/>
<path d="M128.425 327.844L111.957 318.51C111.284 319.606 110.906 320.852 110.861 322.131V466.211C110.934 467.486 111.311 468.726 111.962 469.831C112.613 470.937 113.52 471.877 114.61 472.575L118.821 474.965C119.982 475.544 121.267 475.846 122.57 475.846C123.873 475.846 125.158 475.544 126.319 474.965L128.425 473.777V327.844Z" fill="#A65DB3"/>
<path opacity="0.5" d="M128.425 327.844L111.957 318.51C111.284 319.606 110.906 320.852 110.861 322.131V466.211C110.934 467.486 111.311 468.726 111.962 469.831C112.613 470.937 113.52 471.877 114.61 472.575L118.821 474.965C119.982 475.544 121.267 475.846 122.57 475.846C123.873 475.846 125.158 475.544 126.319 474.965L128.425 473.777V327.844Z" fill="black"/>
<path d="M321.725 216.008V360.088C321.676 361.407 321.273 362.69 320.557 363.808C320.003 364.749 319.257 365.567 318.365 366.212L318.221 366.297L317.975 366.452L126.319 474.965C125.952 475.219 125.526 475.378 125.08 475.428C124.634 475.477 124.182 475.415 123.767 475.248C123.368 475.001 123.045 474.652 122.834 474.238C122.623 473.824 122.532 473.362 122.57 472.9V328.763C122.537 328.247 122.633 327.731 122.848 327.26C123.063 326.788 123.392 326.374 123.806 326.055C124.22 325.735 124.707 325.518 125.225 325.423C125.743 325.329 126.277 325.359 126.781 325.51L207.374 344.305L217.929 346.766C219.175 346.995 220.461 346.886 221.648 346.449C222.835 346.013 223.878 345.267 224.664 344.291L236.892 327.589L319.201 215.201C320.585 213.306 321.725 213.66 321.725 216.008Z" fill="#A65DB3"/>
<path opacity="0.2" d="M321.725 216.008V360.088C321.676 361.407 321.273 362.69 320.557 363.808C320.003 364.749 319.257 365.567 318.365 366.212L318.221 366.297L317.975 366.452L126.319 474.965C125.952 475.219 125.526 475.378 125.08 475.428C124.634 475.477 124.182 475.415 123.767 475.248C123.368 475.001 123.045 474.652 122.834 474.238C122.623 473.824 122.532 473.362 122.57 472.9V328.763C122.537 328.247 122.633 327.731 122.848 327.26C123.063 326.788 123.392 326.374 123.806 326.055C124.22 325.735 124.707 325.518 125.225 325.423C125.743 325.329 126.277 325.359 126.781 325.51L207.374 344.305L217.929 346.766C219.175 346.995 220.461 346.886 221.648 346.449C222.835 346.013 223.878 345.267 224.664 344.291L236.892 327.589L319.201 215.201C320.585 213.306 321.725 213.66 321.725 216.008Z" fill="black"/>
<path d="M317.975 366.452L318.221 366.297L318.365 366.212C319.257 365.567 320.003 364.749 320.557 363.807C321.265 362.707 321.668 361.445 321.725 360.145L236.892 327.618L293.707 380.227L317.975 366.452Z" fill="#A65DB3"/>
<path opacity="0.6" d="M317.975 366.452L318.221 366.297L318.365 366.212C319.257 365.567 320.003 364.749 320.557 363.807C321.265 362.707 321.668 361.445 321.725 360.145L236.892 327.618L293.707 380.227L317.975 366.452Z" fill="black"/>
<path d="M122.57 472.9C122.515 473.37 122.595 473.846 122.802 474.273C123.008 474.701 123.332 475.063 123.738 475.319C124.153 475.486 124.605 475.548 125.051 475.498C125.497 475.449 125.924 475.29 126.29 475.036L192.305 437.545L207.374 344.207L122.57 470.454V472.9Z" fill="#A65DB3"/>
<path opacity="0.6" d="M122.57 472.9C122.515 473.37 122.595 473.846 122.802 474.273C123.008 474.701 123.332 475.063 123.738 475.319C124.153 475.486 124.605 475.548 125.051 475.498C125.497 475.449 125.924 475.29 126.29 475.036L192.305 437.545L207.374 344.207L122.57 470.454V472.9Z" fill="black"/>
<path d="M320.557 363.808C320.003 364.749 319.257 365.567 318.365 366.212L318.221 366.297L126.319 474.965C125.952 475.219 125.526 475.378 125.08 475.428C124.634 475.477 124.182 475.415 123.767 475.248L215.55 331.549C217.395 328.671 220.235 326.541 223.551 325.549C226.866 324.557 230.435 324.769 233.604 326.147L320.557 363.808Z" fill="#A65DB3"/>
<path opacity="0.2" d="M320.557 363.808C320.003 364.749 319.257 365.567 318.365 366.212L318.221 366.297L126.319 474.965C125.952 475.219 125.526 475.378 125.08 475.428C124.634 475.477 124.182 475.415 123.767 475.248L215.55 331.549C217.395 328.671 220.235 326.541 223.551 325.549C226.866 324.557 230.435 324.769 233.604 326.147L320.557 363.808Z" fill="black"/>
<path d="M122.57 324.521L210.719 362.704C213.893 364.079 217.466 364.285 220.782 363.285C224.098 362.284 226.935 360.145 228.773 357.26L321.335 211.977L122.57 324.521Z" fill="#A65DB3"/>
<path opacity="0.6" d="M122.57 324.521L210.719 362.704C213.893 364.079 217.466 364.285 220.782 363.285C224.098 362.284 226.935 360.145 228.773 357.26L321.335 211.977L122.57 324.521Z" fill="black"/>
<path d="M122.57 324.521L211.34 357.048C214.407 358.171 217.773 358.237 220.884 357.234C223.995 356.232 226.665 354.221 228.456 351.532L321.335 211.977L122.57 324.521Z" fill="#A65DB3"/>
<path opacity="0.2" d="M122.57 324.521L211.34 357.048C214.407 358.171 217.773 358.237 220.884 357.234C223.995 356.232 226.665 354.221 228.456 351.532L321.335 211.977L122.57 324.521Z" fill="black"/>
<path d="M143.594 339.879C143.661 338.603 144.036 337.361 144.688 336.254C145.34 335.148 146.25 334.209 147.344 333.515L339 224.988C340.161 224.409 341.446 224.107 342.749 224.107C344.052 224.107 345.337 224.409 346.498 224.988L350.723 227.378C351.812 228.076 352.717 229.016 353.366 230.122C354.015 231.228 354.389 232.468 354.458 233.742V377.823C354.387 379.096 354.012 380.335 353.363 381.441C352.715 382.546 351.81 383.487 350.723 384.186L159.053 492.699C157.891 493.272 156.61 493.57 155.311 493.57C154.011 493.57 152.73 493.272 151.569 492.699L147.344 490.309C146.255 489.61 145.348 488.67 144.697 487.565C144.046 486.46 143.668 485.22 143.594 483.945V339.879Z" fill="#455A64"/>
<path d="M143.594 339.879C143.661 338.603 144.036 337.361 144.688 336.254C145.34 335.148 146.25 334.209 147.344 333.515L339 224.988C340.161 224.409 341.446 224.107 342.749 224.107C344.052 224.107 345.337 224.409 346.498 224.988L350.723 227.378C351.812 228.076 352.717 229.016 353.366 230.122C354.015 231.228 354.389 232.468 354.458 233.742V377.823C354.387 379.096 354.012 380.335 353.363 381.441C352.715 382.546 351.81 383.487 350.723 384.186L159.053 492.699C157.891 493.272 156.61 493.57 155.311 493.57C154.011 493.57 152.73 493.272 151.569 492.699L147.344 490.309C146.255 489.61 145.348 488.67 144.697 487.565C144.046 486.46 143.668 485.22 143.594 483.945V339.879Z" fill="#455A64"/>
<path d="M161.172 345.621L144.69 336.301C144.015 337.396 143.638 338.643 143.594 339.922V483.96C143.668 485.234 144.046 486.474 144.697 487.579C145.348 488.684 146.255 489.625 147.344 490.324L151.569 492.714C152.73 493.286 154.011 493.584 155.311 493.584C156.61 493.584 157.891 493.286 159.053 492.714L161.172 491.512V345.621Z" fill="#263238"/>
<path d="M354.472 233.742V377.822C354.424 379.141 354.021 380.424 353.304 381.542C352.751 382.483 352.004 383.301 351.113 383.946L350.968 384.031L350.723 384.186L159.067 492.699C158.7 492.953 158.274 493.112 157.828 493.162C157.382 493.211 156.93 493.15 156.515 492.982C156.109 492.726 155.785 492.364 155.578 491.937C155.372 491.509 155.292 491.034 155.347 490.564V346.497C155.314 345.982 155.409 345.466 155.625 344.994C155.84 344.522 156.169 344.109 156.583 343.789C156.997 343.469 157.484 343.253 158.002 343.158C158.52 343.063 159.054 343.093 159.557 343.245L240.151 362.04L250.706 364.5C251.952 364.729 253.238 364.62 254.425 364.184C255.612 363.747 256.655 363.001 257.44 362.026L269.654 345.324L351.963 232.936C353.29 231.069 354.472 231.394 354.472 233.742Z" fill="#37474F"/>
<path d="M350.723 384.186L350.968 384.031L351.113 383.946C352.004 383.302 352.751 382.483 353.304 381.542C354.004 380.444 354.402 379.187 354.458 377.893L269.64 345.366L326.44 397.947L350.723 384.186Z" fill="#263238"/>
<path d="M155.318 490.578C155.263 491.048 155.343 491.524 155.549 491.951C155.756 492.379 156.08 492.741 156.486 492.997C156.901 493.164 157.353 493.226 157.799 493.176C158.245 493.127 158.671 492.968 159.038 492.714L225.024 455.35L240.093 362.012L155.289 488.16L155.318 490.578Z" fill="#263238"/>
<path d="M353.29 381.542C352.736 382.483 351.99 383.301 351.098 383.946L350.954 384.031L159.067 492.699C158.7 492.953 158.274 493.112 157.828 493.162C157.382 493.211 156.93 493.15 156.515 492.982L248.284 349.298C250.124 346.414 252.962 344.278 256.278 343.281C259.594 342.283 263.165 342.492 266.337 343.867L353.29 381.542Z" fill="#37474F"/>
<path d="M155.318 342.269L243.467 380.453C246.639 381.823 250.209 382.027 253.521 381.027C256.834 380.027 259.669 377.891 261.507 375.008L354.069 229.655L155.318 342.269Z" fill="#263238"/>
<path d="M155.318 342.269L244.073 374.796C247.142 375.923 250.512 375.991 253.626 374.988C256.74 373.985 259.413 371.972 261.204 369.281L354.069 229.655L155.318 342.269Z" fill="#37474F"/>
<path d="M284.175 454.247V310.166C284.309 307.433 285.18 304.783 286.698 302.487L378.107 177.654C379.775 175.374 382.097 173.631 384.778 172.649C387.459 171.667 390.377 171.489 393.161 172.139L479.119 192.178C481.889 192.901 484.561 193.946 487.079 195.29L491.304 197.68C492.39 198.38 493.294 199.321 493.942 200.426C494.591 201.531 494.966 202.77 495.039 204.044V348.124C494.964 349.397 494.588 350.635 493.939 351.74C493.291 352.845 492.388 353.786 491.304 354.488L299.633 463.001C298.473 463.576 297.191 463.876 295.891 463.876C294.591 463.876 293.309 463.576 292.149 463.001L287.924 460.611C286.834 459.913 285.927 458.973 285.276 457.867C284.625 456.762 284.248 455.522 284.175 454.247Z" fill="#A65DB3"/>
<path opacity="0.3" d="M284.175 454.247V310.166C284.309 307.433 285.18 304.783 286.698 302.487L378.107 177.654C379.775 175.374 382.097 173.631 384.778 172.649C387.459 171.667 390.377 171.489 393.161 172.139L479.119 192.178C481.889 192.901 484.561 193.946 487.079 195.29L491.304 197.68C492.39 198.38 493.294 199.321 493.942 200.426C494.591 201.531 494.966 202.77 495.039 204.044V348.124C494.964 349.397 494.588 350.635 493.939 351.74C493.291 352.845 492.388 353.786 491.304 354.488L299.633 463.001C298.473 463.576 297.191 463.876 295.891 463.876C294.591 463.876 293.309 463.576 292.149 463.001L287.924 460.611C286.834 459.913 285.927 458.973 285.276 457.867C284.625 456.762 284.248 455.522 284.175 454.247Z" fill="white"/>
<path d="M301.738 240.53V424.379C301.738 426.712 303.426 427.674 305.488 426.5L485.435 324.676C486.527 323.98 487.436 323.041 488.087 321.935C488.739 320.829 489.115 319.588 489.184 318.312V134.464C489.184 132.116 487.511 131.169 485.435 132.342L305.488 234.166C304.396 234.863 303.488 235.802 302.837 236.908C302.185 238.014 301.809 239.255 301.738 240.53Z" fill="#FAFAFA"/>
<path d="M303.815 427.73C303.35 427.734 302.892 427.617 302.488 427.391C301.995 427.068 301.6 426.62 301.346 426.095C301.092 425.569 300.989 424.986 301.046 424.407V240.558C301.115 239.157 301.523 237.792 302.238 236.577C302.953 235.362 303.953 234.332 305.156 233.572L485.103 131.748C485.573 131.373 486.148 131.147 486.752 131.1C487.356 131.053 487.96 131.187 488.484 131.485C489.008 131.783 489.428 132.23 489.687 132.767C489.946 133.304 490.032 133.906 489.934 134.492V318.34C489.867 319.74 489.459 321.104 488.744 322.317C488.029 323.53 487.027 324.557 485.824 325.313L305.877 427.136C305.256 427.51 304.544 427.715 303.815 427.73ZM487.108 132.47C486.642 132.496 486.191 132.637 485.795 132.88L305.848 234.774C304.869 235.412 304.053 236.263 303.465 237.262C302.877 238.261 302.533 239.379 302.46 240.53V424.379C302.373 424.71 302.4 425.06 302.535 425.376C302.67 425.691 302.907 425.955 303.209 426.126C303.511 426.298 303.862 426.367 304.208 426.325C304.555 426.283 304.877 426.131 305.127 425.892L485.074 324.068C486.055 323.431 486.871 322.58 487.459 321.581C488.047 320.582 488.391 319.463 488.463 318.312V134.464C488.504 134.132 488.458 133.796 488.329 133.486C488.2 133.177 487.993 132.905 487.728 132.696C487.546 132.567 487.331 132.489 487.108 132.47Z" fill="#E0E0E0"/>
<path d="M297.86 313.674L284.882 306.32C284.461 307.562 284.228 308.858 284.189 310.166V454.247C284.262 455.522 284.639 456.762 285.291 457.867C285.942 458.973 286.849 459.913 287.939 460.611L292.149 463.001C293.308 463.58 294.591 463.881 295.891 463.881C297.192 463.881 298.474 463.58 299.633 463.001L301.436 461.997L297.86 313.674Z" fill="#A65DB3"/>
<g opacity="0.1">
<path d="M297.86 313.674L284.882 306.32C284.461 307.562 284.228 308.858 284.189 310.166V454.247C284.262 455.522 284.639 456.762 285.291 457.867C285.942 458.973 286.849 459.913 287.939 460.611L292.149 463.001C293.308 463.58 294.591 463.881 295.891 463.881C297.192 463.881 298.474 463.58 299.633 463.001L301.436 461.997L297.86 313.674Z" fill="black"/>
</g>
<path d="M495.053 204.043V348.124C495.004 349.443 494.601 350.726 493.885 351.843C493.331 352.784 492.585 353.603 491.693 354.247L491.549 354.332L491.304 354.488L299.648 463.001C299.281 463.255 298.855 463.414 298.408 463.463C297.962 463.513 297.511 463.451 297.095 463.283C296.69 463.028 296.365 462.665 296.159 462.238C295.952 461.811 295.872 461.335 295.927 460.865V316.799C295.895 316.283 295.99 315.767 296.205 315.295C296.421 314.823 296.749 314.41 297.163 314.09C297.577 313.77 298.064 313.554 298.582 313.459C299.1 313.364 299.634 313.394 300.138 313.546L380.688 332.341L391.243 334.802C392.492 335.033 393.78 334.925 394.97 334.489C396.16 334.053 397.205 333.305 397.992 332.327L410.22 315.625L492.53 203.237C493.914 201.37 495.053 201.696 495.053 204.043Z" fill="#A65DB3"/>
<path opacity="0.3" d="M495.053 204.043V348.124C495.004 349.443 494.601 350.726 493.885 351.843C493.331 352.784 492.585 353.603 491.693 354.247L491.549 354.332L491.304 354.488L299.648 463.001C299.281 463.255 298.855 463.414 298.408 463.463C297.962 463.513 297.511 463.451 297.095 463.283C296.69 463.028 296.365 462.665 296.159 462.238C295.952 461.811 295.872 461.335 295.927 460.865V316.799C295.895 316.283 295.99 315.767 296.205 315.295C296.421 314.823 296.749 314.41 297.163 314.09C297.577 313.77 298.064 313.554 298.582 313.459C299.1 313.364 299.634 313.394 300.138 313.546L380.688 332.341L391.243 334.802C392.492 335.033 393.78 334.925 394.97 334.489C396.16 334.053 397.205 333.305 397.992 332.327L410.22 315.625L492.53 203.237C493.914 201.37 495.053 201.696 495.053 204.043Z" fill="white"/>
<path d="M491.304 354.488L491.549 354.332L491.693 354.247C492.585 353.603 493.331 352.784 493.885 351.843C494.586 350.74 494.983 349.478 495.039 348.18L410.22 315.653L467.021 368.248L491.304 354.488Z" fill="#A65DB3"/>
<path d="M295.898 460.88C295.843 461.349 295.924 461.825 296.13 462.252C296.336 462.68 296.661 463.042 297.066 463.298C297.482 463.465 297.933 463.527 298.38 463.478C298.826 463.428 299.252 463.269 299.619 463.015L365.605 425.651L380.674 332.313L295.87 458.461L295.898 460.88Z" fill="#A65DB3"/>
<path d="M493.885 351.844C493.331 352.785 492.585 353.603 491.693 354.248L491.549 354.333L299.648 463.001C299.281 463.255 298.855 463.414 298.408 463.464C297.962 463.513 297.511 463.451 297.095 463.284L388.864 319.599C390.704 316.719 393.54 314.586 396.852 313.588C400.165 312.591 403.733 312.797 406.904 314.169L493.885 351.844Z" fill="#A65DB3"/>
<path opacity="0.3" d="M493.885 351.844C493.331 352.785 492.585 353.603 491.693 354.248L491.549 354.333L299.648 463.001C299.281 463.255 298.855 463.414 298.408 463.464C297.962 463.513 297.511 463.451 297.095 463.284L388.864 319.599C390.704 316.719 393.54 314.586 396.852 313.588C400.165 312.591 403.733 312.797 406.904 314.169L493.885 351.844Z" fill="white"/>
<path d="M380.976 282.872C379.294 283.127 377.573 282.977 375.963 282.435C374.353 281.893 372.901 280.975 371.733 279.761C369.541 277.371 368.445 273.679 368.445 268.716C368.449 263.115 369.673 257.579 372.036 252.48C374.461 247.233 377.81 242.446 381.928 238.338C386.356 233.835 391.404 229.96 396.925 226.826C402.337 223.772 406.956 222.079 410.783 221.749C414.633 221.41 417.531 222.386 419.521 224.648C421.511 226.911 422.492 230.376 422.492 235.015C422.575 239.615 421.464 244.161 419.262 248.224C417.321 251.903 414.362 254.971 410.725 257.077C409.469 257.951 407.93 258.344 406.399 258.18C405.854 258.074 405.352 257.816 404.953 257.437C404.554 257.058 404.275 256.575 404.149 256.044C402.949 258.272 401.423 260.315 399.621 262.111C397.798 263.956 395.721 265.541 393.45 266.82C389.527 268.998 386.398 269.649 384.091 268.899C381.784 268.15 380.688 265.859 380.688 262.04C380.721 257.242 382.229 252.565 385.014 248.619C388.046 244.246 392.075 240.624 396.781 238.041C398.746 236.893 400.882 236.053 403.111 235.552C404.768 235.112 406.515 235.112 408.173 235.552V250.444C408.173 251.646 408.389 252.381 408.807 252.664C409.225 252.947 409.917 252.806 410.898 252.254C412.724 251.089 414.077 249.332 414.719 247.29C415.694 244.532 416.158 241.624 416.089 238.706C416.089 234.991 415.262 232.29 413.609 230.602C412.725 229.755 411.647 229.128 410.466 228.774C409.284 228.419 408.033 228.348 406.817 228.566C403.297 229.093 399.924 230.326 396.911 232.186C390.535 235.655 385.039 240.489 380.832 246.328C376.944 251.809 374.879 258.334 374.92 265.01C374.92 269.074 375.771 272.039 377.472 273.906C378.355 274.84 379.459 275.546 380.687 275.961C381.914 276.375 383.228 276.485 384.509 276.282C388.098 275.783 391.538 274.544 394.603 272.647C396.719 271.447 398.721 270.065 400.588 268.518C402.325 267.111 403.906 265.527 405.303 263.794C405.448 263.612 405.618 263.45 405.808 263.313C405.937 263.243 406.067 263.313 406.183 263.483L407.769 266.311C407.827 266.424 407.87 266.542 407.899 266.665C407.848 266.98 407.691 267.269 407.452 267.485C405.709 269.54 403.778 271.433 401.684 273.142C399.478 274.957 397.119 276.584 394.632 278.007C390.49 280.573 385.832 282.232 380.976 282.872ZM399.722 256.285C401.095 254.696 401.896 252.708 402.001 250.628V242.001C399.943 242.171 397.96 242.842 396.233 243.953C393.482 245.47 391.139 247.608 389.398 250.189C387.764 252.557 386.886 255.349 386.874 258.208C386.874 260.598 387.48 262.026 388.706 262.451C389.931 262.875 391.82 262.451 394.401 260.937C396.491 259.752 398.32 258.17 399.78 256.285H399.722Z" fill="#E0E0E0"/>
<path d="M197.323 297.042L183.264 289.052H183.163C178.361 286.393 171.742 286.789 164.417 290.933C149.694 299.263 137.769 319.528 137.769 336.188C137.769 344.518 140.739 350.33 145.541 353.158L158.62 360.498L160.985 356.637C163.667 356.048 166.243 355.066 168.627 353.724C183.336 345.38 195.276 325.114 195.276 308.469C195.268 306.219 194.987 303.979 194.439 301.794L197.323 297.042Z" fill="#F28F8F"/>
<path d="M197.323 297.042L183.264 289.052H183.163C178.361 286.393 171.742 286.789 164.417 290.933C149.694 299.263 137.769 319.528 137.769 336.188C137.769 344.518 140.739 350.33 145.541 353.158L158.62 360.498L160.985 356.637C163.667 356.048 166.243 355.066 168.627 353.724C183.336 345.38 195.276 325.114 195.276 308.469C195.268 306.219 194.987 303.979 194.439 301.794L197.323 297.042Z" fill="#A65DB3"/>
<path opacity="0.4" d="M197.323 297.042L183.264 289.052H183.163C178.361 286.393 171.742 286.789 164.417 290.933C149.694 299.263 137.769 319.528 137.769 336.188C137.769 344.518 140.739 350.33 145.541 353.158L158.62 360.498L160.985 356.637C163.667 356.048 166.243 355.066 168.627 353.724C183.336 345.38 195.276 325.114 195.276 308.469C195.268 306.219 194.987 303.979 194.439 301.794L197.323 297.042Z" fill="black"/>
<path d="M177.928 298.527C163.206 306.871 151.28 327.137 151.28 343.782C151.28 360.428 163.206 367.202 177.928 358.872C192.651 350.542 204.577 330.276 204.577 313.617C204.577 296.957 192.651 290.198 177.928 298.527Z" fill="#A65DB3"/>
<path d="M167.517 347.77C167.243 347.77 167.099 347.615 167.099 347.374C167.127 347.108 167.206 346.849 167.33 346.611L168.671 343.655C168.76 343.365 168.935 343.109 169.175 342.919C169.375 342.831 169.591 342.783 169.81 342.778C171.01 342.708 172.194 342.475 173.328 342.085C174.837 341.587 176.287 340.932 177.654 340.133C179.782 339.003 181.648 337.452 183.134 335.58C184.249 334.163 184.87 332.433 184.908 330.644C184.908 327.519 182.961 327.066 179.068 329.23L175.275 331.478C174.655 331.818 174.222 331.945 173.963 331.832C173.703 331.719 173.574 331.379 173.574 330.814V329.64C173.553 329.141 173.689 328.647 173.963 328.226C174.31 327.766 174.759 327.389 175.275 327.123L179.039 324.987C180.547 324.182 181.826 323.02 182.759 321.607C183.541 320.421 183.971 319.045 183.999 317.633C183.999 314.607 181.827 314.324 177.481 316.785C174.809 318.278 172.403 320.189 170.358 322.442C170.166 322.654 169.953 322.848 169.723 323.021C169.639 323.061 169.543 323.071 169.451 323.051C169.36 323.03 169.278 322.98 169.219 322.908L167.935 321.494C167.864 321.429 167.806 321.35 167.767 321.263C167.727 321.175 167.706 321.081 167.705 320.985C167.734 320.66 167.876 320.356 168.108 320.122C169.386 318.555 170.837 317.132 172.434 315.88C174.295 314.393 176.277 313.059 178.361 311.891C180.242 310.743 182.318 309.934 184.489 309.501C185.173 309.338 185.884 309.323 186.574 309.457C187.264 309.592 187.916 309.872 188.484 310.279C188.996 310.764 189.391 311.354 189.641 312.007C189.89 312.661 189.988 313.36 189.926 314.055C189.893 315.612 189.54 317.147 188.888 318.567C188.191 320.205 187.216 321.716 186.004 323.036C186.626 322.831 187.291 322.785 187.937 322.901C188.582 323.017 189.187 323.292 189.695 323.7C190.139 324.207 190.477 324.796 190.687 325.432C190.897 326.068 190.977 326.739 190.921 327.405C190.811 330.541 189.69 333.561 187.72 336.032C185.301 339.214 182.212 341.847 178.664 343.754C173.588 346.667 169.872 348.006 167.517 347.77Z" fill="white"/>
<path d="M469.905 501.311L470.179 501.071C470.38 500.901 470.597 500.732 470.784 500.548L471.433 499.926L472.082 499.317C472.462 498.968 472.823 498.6 473.163 498.214L478.297 501.976L481.715 504.479C480.47 505.802 479.457 507.316 478.715 508.962C478.715 508.962 477.691 510.589 474.216 509.769C469.919 508.793 469.241 502.598 469.905 501.311Z" fill="#FFA8A7"/>
<path d="M419.622 499.586C415.7 495.117 419.189 487.693 422.996 478.062C427.178 467.47 433.638 449.467 433.638 449.467L479.508 440.175C479.508 440.175 528.378 439.256 532.862 448.42C536.496 455.76 504.311 466.805 499.696 467.201L471.448 468.657L468.477 470.072L448.635 494.693L419.622 499.586Z" fill="#A65DB3"/>
<path d="M504.138 455.929C500.576 459.482 497.257 463.262 494.202 467.243C485.94 478.557 472.861 499.106 472.861 499.106C472.861 499.106 474.894 505.611 481.138 505.328C481.138 505.328 524.109 465.97 527.628 462.336C532.949 456.82 537.217 447.727 528.017 446.978C518.817 446.228 507.714 452.139 504.138 455.929Z" fill="#A65DB3"/>
<path d="M493.972 467.469C493.972 467.469 501.643 456.467 509.588 451.913C509.588 451.913 501.686 453.44 489.718 467.724L493.972 467.469Z" fill="#A65DB3"/>
<path opacity="0.1" d="M493.972 467.469C493.972 467.469 501.643 456.467 509.588 451.913C509.588 451.913 501.686 453.44 489.718 467.724L493.972 467.469Z" fill="black"/>
<path d="M499.192 481.386L496.178 481.951L498.975 492.091C498.975 492.091 501.686 491.837 502.624 491.893C503.989 491.575 505.304 491.076 506.531 490.408L505.81 484.214L502.494 480.82L499.192 481.386Z" fill="#FFA8A7"/>
<path d="M522.985 483.775C524.423 484.344 525.726 485.198 526.813 486.283C527.9 487.368 528.747 488.662 529.301 490.083C529.943 491.569 530.468 493.1 530.872 494.665C531.348 496.305 531.117 499.091 528.998 499.544C528.309 499.623 527.611 499.5 526.993 499.19C522.739 497.578 518.586 495.711 514.232 494.354C510.5 492.998 506.592 492.165 502.624 491.879C503.526 490.517 503.977 488.915 503.915 487.292C503.853 485.67 503.281 484.105 502.277 482.814C501.424 482.039 500.345 481.545 499.192 481.399C500.287 480.919 501.311 480.296 502.364 479.716C504.324 478.372 506.725 477.792 509.098 478.09C510.915 478.472 512.299 479.886 513.842 480.919C516.784 482.799 519.625 482.672 522.985 483.775Z" fill="#263238"/>
<path d="M425.808 489.871C429.601 488.725 435.657 487.707 453.624 486.802C471.592 485.897 496.178 481.937 496.178 481.937C500.36 485.883 498.975 492.077 498.975 492.077C498.975 492.077 467.064 501.976 456.667 503.292C440.113 505.385 434.403 505.229 426.933 503.659C418.541 501.892 413.248 493.647 425.808 489.871Z" fill="#A65DB3"/>
<path d="M491.477 405.937L504.974 437.573L495.313 443.4L476.74 412.556L491.477 405.937Z" fill="#F28F8F"/>
<path d="M463.56 376.125C470.943 376.21 479.061 378.84 481.859 384.511L493.395 407.846C493.395 407.846 486.877 417.208 476.523 416.543L463.56 376.125Z" fill="#E0E0E0"/>
<path d="M414.474 425.297C414.561 424.067 416.363 418.057 418.295 411.58L432.312 416.331L428.548 427.97L416.738 438.959C414.18 434.875 413.367 429.966 414.474 425.297Z" fill="#FFA8A7"/>
<path d="M448.462 376.563C439.666 378.642 427.683 381.343 424.208 390.706C420.732 400.068 415.757 416.6 415.757 416.6C417.69 419.881 428.288 422.596 431.966 420.701L433.696 415.044V449.438C440.574 456.778 474.505 454.897 479.566 440.147V393.294C479.566 385.798 475.326 376.79 463.603 376.125L448.462 376.563Z" fill="#FAFAFA"/>
<path d="M433.653 415.073L438.065 401.454L433.653 421.168V415.073Z" fill="#E0E0E0"/>
<path d="M445.117 338.224C444.333 338.125 443.537 338.2 442.788 338.445C442.039 338.69 441.356 339.098 440.791 339.638C438.93 341.505 439.349 344.956 440.791 352.876L446.559 353.512L445.117 338.224Z" fill="#263238"/>
<path d="M478.585 335.933C479.82 335.938 481.043 335.693 482.176 335.212C483.935 334.222 484.397 336.187 483.43 337.885C482.792 339.108 481.844 340.151 480.678 340.914C479.512 341.676 478.166 342.133 476.768 342.24C476.768 342 475.125 337.842 475.125 337.842L478.585 335.933Z" fill="#263238"/>
<path d="M447.813 353.597C446.962 354.092 445.737 352.493 444.684 351.405C444.271 350.941 443.745 350.589 443.154 350.381C442.564 350.173 441.93 350.115 441.311 350.215C440.691 350.314 440.108 350.566 439.616 350.947C439.124 351.329 438.739 351.827 438.498 352.394C436.753 356.001 440.718 360.795 443.04 362.379C443.692 362.93 444.504 363.265 445.361 363.336C446.218 363.407 447.076 363.211 447.813 362.775L448.419 376.563C449.447 378.773 451.018 380.698 452.991 382.167C454.964 383.635 457.277 384.601 459.724 384.978C467.972 386.067 466.271 379.392 463.56 376.125V371.076C465.625 371.508 467.748 371.613 469.847 371.387C470.914 371.105 473.481 368.064 475.139 364.656C476.999 360.837 480.099 354.049 477.345 342.552C474.375 330.22 460.863 329.824 452.831 334.816C444.799 339.808 447.813 353.597 447.813 353.597Z" fill="#FFA8A7"/>
<path d="M447.813 354.997C447.38 354.997 445.751 352.352 444.684 351.405C443.242 350.089 445.117 338.224 445.117 338.224C445.117 338.224 443.675 333.713 446.559 330.729C449.443 327.745 455.095 328.24 459.219 328.098C464.272 328.125 469.278 327.139 473.928 325.199C479.782 322.71 480.215 322.371 480.936 324.93C481.657 327.49 481.945 333.218 478.456 337.078L476.552 340.119C476.552 340.119 474.779 341.533 469.342 342.24C463.906 342.947 454.591 340.02 453.48 339.864C451.894 339.652 451.562 341.151 450.712 345.253C449.904 348.859 449.255 354.968 447.813 354.997Z" fill="#263238"/>
<path d="M445.131 339.143L439.969 336.428C440.138 336.091 440.375 335.791 440.664 335.545C440.953 335.299 441.29 335.112 441.654 334.995C442.017 334.878 442.401 334.833 442.783 334.863C443.164 334.893 443.536 334.997 443.876 335.169C444.564 335.549 445.077 336.172 445.31 336.911C445.544 337.65 445.479 338.449 445.131 339.143Z" fill="#263238"/>
<path d="M463.545 371.076C463.545 371.076 455.903 369.563 453.235 368.248C451.665 367.441 450.379 366.189 449.543 364.656C449.949 366.194 450.665 367.636 451.649 368.898C453.596 371.345 463.545 373.141 463.545 373.141V371.076Z" fill="#F28F8F"/>
<path d="M463.79 353.314C463.779 353.608 463.68 353.892 463.505 354.131C463.331 354.37 463.088 354.553 462.808 354.658C462.528 354.763 462.223 354.784 461.93 354.72C461.637 354.656 461.37 354.509 461.162 354.298C460.954 354.086 460.814 353.819 460.76 353.53C460.705 353.241 460.739 352.942 460.856 352.671C460.973 352.401 461.169 352.17 461.419 352.008C461.669 351.845 461.962 351.759 462.262 351.758C462.466 351.762 462.668 351.805 462.856 351.885C463.043 351.965 463.213 352.081 463.355 352.226C463.497 352.37 463.608 352.541 463.683 352.727C463.758 352.914 463.794 353.113 463.79 353.314Z" fill="#263238"/>
<path d="M462.175 347.657L458.888 349.425C458.66 348.983 458.612 348.472 458.754 347.997C458.896 347.522 459.217 347.117 459.652 346.865C459.869 346.749 460.109 346.677 460.355 346.654C460.602 346.631 460.851 346.657 461.086 346.731C461.322 346.805 461.54 346.926 461.728 347.085C461.915 347.244 462.067 347.439 462.175 347.657Z" fill="#263238"/>
<path d="M462.882 363.354L466.386 364.656C466.308 364.885 466.185 365.097 466.022 365.278C465.86 365.46 465.662 365.608 465.44 365.713C465.218 365.819 464.977 365.88 464.731 365.892C464.485 365.905 464.239 365.869 464.007 365.787C463.535 365.603 463.153 365.247 462.944 364.793C462.734 364.34 462.712 363.824 462.882 363.354Z" fill="#F28F8F"/>
<path d="M477.446 348.902L474.461 346.639C474.603 346.442 474.783 346.276 474.992 346.15C475.201 346.024 475.433 345.94 475.676 345.904C475.918 345.869 476.166 345.882 476.403 345.942C476.64 346.003 476.863 346.11 477.057 346.257C477.455 346.565 477.718 347.011 477.791 347.503C477.863 347.995 477.74 348.496 477.446 348.902Z" fill="#263238"/>
<path d="M476.523 352.89C476.512 353.183 476.413 353.468 476.238 353.706C476.063 353.945 475.821 354.129 475.541 354.234C475.261 354.338 474.955 354.36 474.663 354.296C474.37 354.232 474.103 354.085 473.895 353.873C473.687 353.662 473.547 353.394 473.493 353.105C473.438 352.816 473.472 352.518 473.589 352.247C473.706 351.976 473.902 351.746 474.152 351.583C474.402 351.421 474.695 351.334 474.995 351.334C475.199 351.338 475.401 351.381 475.589 351.461C475.776 351.541 475.946 351.657 476.088 351.801C476.23 351.946 476.341 352.116 476.416 352.303C476.491 352.49 476.527 352.689 476.523 352.89Z" fill="#263238"/>
<path d="M469.313 352.706L467.871 361.643L472.918 361.064L469.313 352.706Z" fill="#F28F8F"/>
<path d="M521.917 454.204L490.842 436.611C490.57 436.459 490.262 436.378 489.948 436.378C489.635 436.378 489.327 436.459 489.054 436.611L434.561 467.469L466.516 485.628L521.917 454.204Z" fill="#37474F"/>
<path d="M466.227 482.983L449.471 473.508L498.471 445.761L515.313 455.194L466.227 482.983Z" fill="#263238"/>
<path d="M457.994 456.623L458.311 456.792L466.516 461.445L481.123 453.172L481.426 453.002L472.904 448.18L457.994 456.623Z" fill="#263238"/>
<path d="M458.311 456.792L466.516 461.445L481.123 453.172L472.904 448.519L458.311 456.792Z" fill="#263238"/>
<path d="M434.561 467.469V468.191C434.557 468.701 434.688 469.204 434.94 469.65C435.193 470.096 435.559 470.47 436.003 470.736L464.958 487.127C465.414 487.387 465.931 487.523 466.458 487.523C466.985 487.523 467.502 487.387 467.958 487.127L520.36 457.428C520.803 457.161 521.169 456.787 521.421 456.341C521.674 455.895 521.805 455.393 521.802 454.883V454.162L466.516 485.628L434.561 467.469Z" fill="#263238"/>
<path d="M466.516 485.628V487.58C467.024 487.574 467.521 487.438 467.958 487.184L520.36 457.485C520.803 457.218 521.169 456.843 521.421 456.398C521.674 455.952 521.805 455.45 521.802 454.939V454.218L466.516 485.628Z" fill="#263238"/>
<path d="M467.367 486.01C467.862 486.196 468.394 486.271 468.923 486.229C469.452 486.187 469.965 486.03 470.424 485.77L522.595 456.226C523.048 455.972 523.437 455.621 523.734 455.201C524.031 454.78 524.228 454.299 524.311 453.794L530.079 420.404C530.093 420.211 530.093 420.018 530.079 419.824C530.076 418.895 529.698 418.005 529.027 417.35L474.807 448.052C474.474 448.241 474.187 448.5 473.968 448.811C473.748 449.121 473.602 449.476 473.538 449.848L467.367 486.01Z" fill="#263238"/>
<path d="M466.516 485.628L466.876 485.826C467.035 485.915 467.199 485.995 467.367 486.066L473.538 449.905C473.602 449.532 473.748 449.178 473.968 448.867C474.187 448.557 474.474 448.298 474.807 448.109L529.027 417.406C528.805 417.204 528.564 417.024 528.306 416.869L473.985 447.571C473.65 447.76 473.362 448.019 473.14 448.329C472.918 448.64 472.769 448.994 472.702 449.367L466.516 485.628Z" fill="#455A64"/>
<path d="M496.74 455.166C497.561 452.374 499.446 449.999 502.003 448.533C504.527 447.119 506.257 447.755 505.882 449.947C505.061 452.739 503.177 455.114 500.619 456.58C498.096 458.065 496.365 457.344 496.74 455.166Z" fill="#37474F"/>
<path d="M428.548 427.942C428.548 427.942 437.907 463.298 441.858 465.829C445.809 468.36 453.163 470.213 456.681 471.486C460.2 472.759 461.8 474.498 461.195 474.979C460.589 475.46 455.513 475.983 453.754 476.591C451.995 477.199 454.273 479.985 458.167 482.941C462.06 485.897 465.377 485.628 464.944 487.594C464.511 489.56 455.831 491.525 448.505 487.311C441.18 483.097 438.959 477.411 434.59 472.589C430.221 467.766 420.242 447.727 416.738 438.959C416.738 438.959 417.07 422.667 422.506 423.699C427.942 424.732 428.548 427.942 428.548 427.942Z" fill="#FFA8A7"/>
<path d="M473.077 499.586C473.74 501.156 476.033 505.484 481.138 505.243L493.683 493.731L473.077 499.586Z" fill="#A65DB3"/>
<path opacity="0.1" d="M473.077 499.586C473.74 501.156 476.033 505.484 481.138 505.243L493.683 493.731L473.077 499.586Z" fill="black"/>
<path d="M476.869 519.838C476.749 516.135 477.371 512.444 478.701 508.977C478.097 509.39 477.4 509.655 476.67 509.748C475.939 509.842 475.197 509.762 474.505 509.514C470.308 508.284 469.256 502.542 469.919 501.297C469.313 501.821 468.679 502.316 468.059 502.825C466.07 504.134 464.655 506.127 464.093 508.411C463.805 510.207 464.656 511.975 465.074 513.757C465.881 517.151 465.074 520.686 464.944 524.165C464.973 525.684 465.32 527.18 465.962 528.561C466.605 529.943 467.529 531.181 468.679 532.198C469.861 533.329 471.134 534.365 472.486 535.295C472.978 535.837 473.629 536.217 474.35 536.381C475.071 536.545 475.826 536.485 476.511 536.211C477.196 535.936 477.777 535.46 478.175 534.847C478.572 534.235 478.766 533.517 478.73 532.792C478.182 528.38 477.129 524.434 476.869 519.838Z" fill="#263238"/>
<path d="M481.628 504.508C481.239 505.229 480.893 505.922 480.59 506.615C480.95 505.936 481.296 505.229 481.628 504.508Z" fill="#37474F"/>
</svg>
